<svg width="932" height="773" viewBox="0 0 932 773" fill="none" xmlns="http://www.w3.org/2000/svg">
<path fill-rule="evenodd" clip-rule="evenodd" d="M254.541 529.445C245.46 440.437 335.465 383.962 391.454 314.176C453.633 236.676 490.47 106.112 589.671 111.737C688.801 117.358 706.934 253.614 763.424 335.267C817.407 413.298 930.974 475.313 904.171 566.333C877.416 657.192 750.455 652.837 660.862 683.565C584.076 709.901 509.541 756.503 433.641 727.714C346.031 694.483 264.05 622.663 254.541 529.445Z" fill="#DD5454"/>
<path fill-rule="evenodd" clip-rule="evenodd" d="M216.901 64.6383C287.661 42.372 360.825 77.1655 420.843 120.762C482.856 165.808 541.524 225.136 543.34 301.761C545.154 378.366 493.095 445.468 429.55 488.288C373.614 525.981 304.055 521.851 238.171 507.401C173.966 493.318 107.414 469.53 77.4009 411.051C47.3498 352.497 68.1436 285.061 92.7284 224.01C119.196 158.286 149.314 85.9057 216.901 64.6383Z" fill="#FF7373" fill-opacity="0.9"/>
</svg>
