<svg width="127" height="127" viewBox="0 0 127 127" fill="none" xmlns="http://www.w3.org/2000/svg">
<path d="M85.3991 49.2882L71.6435 35.598C71.2599 35.2163 70.7422 35 70.1989 35H43.0455C41.9141 35 41 35.9097 41 37.0357V89.9643C41 91.0903 41.9141 92 43.0455 92H83.9545C85.0859 92 86 91.0903 86 89.9643V50.7323C86 50.1915 85.7827 49.6699 85.3991 49.2882ZM81.2827 51.6674H69.2528V39.6949L81.2827 51.6674ZM81.3977 87.4196H45.6023V39.5804H64.9062V53.3214C64.9062 54.0301 65.1891 54.7097 65.6926 55.2107C66.196 55.7118 66.8789 55.9933 67.5909 55.9933H81.3977V87.4196ZM65.5455 60.9554C65.5455 60.6754 65.3153 60.4464 65.0341 60.4464H61.9659C61.6847 60.4464 61.4545 60.6754 61.4545 60.9554V67.8259H54.5511C54.2699 67.8259 54.0398 68.0549 54.0398 68.3348V71.3884C54.0398 71.6683 54.2699 71.8973 54.5511 71.8973H61.4545V78.7679C61.4545 79.0478 61.6847 79.2768 61.9659 79.2768H65.0341C65.3153 79.2768 65.5455 79.0478 65.5455 78.7679V71.8973H72.4489C72.7301 71.8973 72.9602 71.6683 72.9602 71.3884V68.3348C72.9602 68.0549 72.7301 67.8259 72.4489 67.8259H65.5455V60.9554Z" fill="#A3A3A3"/>
</svg>
